<svg width="40" height="40" viewBox="0 0 40 40" fill="none" xmlns="http://www.w3.org/2000/svg">
<rect width="40" height="40" rx="20" fill="#F0FDF4"/>
<path d="M25.625 22.8125V23.4375H26.5625C26.8111 23.4375 27.0496 23.5363 27.2254 23.7121C27.4012 23.8879 27.5 24.1264 27.5 24.375C27.5 24.6236 27.4012 24.8621 27.2254 25.0379C27.0496 25.2137 26.8111 25.3125 26.5625 25.3125H25.625V26.25C25.625 26.4986 25.5262 26.7371 25.3504 26.9129C25.1746 27.0887 24.9361 27.1875 24.6875 27.1875C24.4389 27.1875 24.2004 27.0887 24.0246 26.9129C23.8488 26.7371 23.75 26.4986 23.75 26.25V21.875C23.75 21.6264 23.8488 21.3879 24.0246 21.2121C24.2004 21.0363 24.4389 20.9375 24.6875 20.9375H27.1875C27.4361 20.9375 27.6746 21.0363 27.8504 21.2121C28.0262 21.3879 28.125 21.6264 28.125 21.875C28.125 22.1236 28.0262 22.3621 27.8504 22.5379C27.6746 22.7137 27.4361 22.8125 27.1875 22.8125H25.625ZM17.1875 23.4375C17.1875 24.1005 16.9241 24.7364 16.4553 25.2053C15.9864 25.6741 15.3505 25.9375 14.6875 25.9375H14.375V26.25C14.375 26.4986 14.2762 26.7371 14.1004 26.9129C13.9246 27.0887 13.6861 27.1875 13.4375 27.1875C13.1889 27.1875 12.9504 27.0887 12.7746 26.9129C12.5988 26.7371 12.5 26.4986 12.5 26.25V21.875C12.5 21.6264 12.5988 21.3879 12.7746 21.2121C12.9504 21.0363 13.1889 20.9375 13.4375 20.9375H14.6875C15.3505 20.9375 15.9864 21.2009 16.4553 21.6697C16.9241 22.1386 17.1875 22.7745 17.1875 23.4375ZM15.3125 23.4375C15.3125 23.2717 15.2467 23.1128 15.1294 22.9956C15.0122 22.8783 14.8533 22.8125 14.6875 22.8125H14.375V24.0625H14.6875C14.8533 24.0625 15.0122 23.9967 15.1294 23.8794C15.2467 23.7622 15.3125 23.6033 15.3125 23.4375ZM23.125 24.0625C23.125 24.8913 22.7958 25.6862 22.2097 26.2722C21.6237 26.8583 20.8288 27.1875 20 27.1875H18.75C18.5014 27.1875 18.2629 27.0887 18.0871 26.9129C17.9113 26.7371 17.8125 26.4986 17.8125 26.25V21.875C17.8125 21.6264 17.9113 21.3879 18.0871 21.2121C18.2629 21.0363 18.5014 20.9375 18.75 20.9375H20C20.8288 20.9375 21.6237 21.2667 22.2097 21.8528C22.7958 22.4388 23.125 23.2337 23.125 24.0625ZM21.25 24.0625C21.25 23.731 21.1183 23.413 20.8839 23.1786C20.6495 22.9442 20.3315 22.8125 20 22.8125H19.6875V25.3125H20C20.3315 25.3125 20.6495 25.1808 20.8839 24.9464C21.1183 24.712 21.25 24.394 21.25 24.0625ZM12.8125 18.4375V13.125C12.8125 12.7106 12.9771 12.3132 13.2701 12.0201C13.5632 11.7271 13.9606 11.5625 14.375 11.5625H21.875C21.9982 11.5625 22.1202 11.5868 22.234 11.634C22.3478 11.6812 22.4512 11.7503 22.5383 11.8375L26.9133 16.2125C27.0889 16.3883 27.1875 16.6266 27.1875 16.875V18.4375C27.1875 18.6861 27.0887 18.9246 26.9129 19.1004C26.7371 19.2762 26.4986 19.375 26.25 19.375C26.0014 19.375 25.7629 19.2762 25.5871 19.1004C25.4113 18.9246 25.3125 18.6861 25.3125 18.4375V18.125H21.5625C21.3139 18.125 21.0754 18.0262 20.8996 17.8504C20.7238 17.6746 20.625 17.4361 20.625 17.1875V13.4375H14.6875V18.4375C14.6875 18.6861 14.5887 18.9246 14.4129 19.1004C14.2371 19.2762 13.9986 19.375 13.75 19.375C13.5014 19.375 13.2629 19.2762 13.0871 19.1004C12.9113 18.9246 12.8125 18.6861 12.8125 18.4375ZM22.5 14.4531V16.25H24.2969L22.5 14.4531Z" fill="#22C55E"/>
</svg>
